HIERARCHY
ROOT Hips
{
    OFFSET 0.000000 0.000000 0.000000
    CHANNELS 6 Xposition Yposition Zposition Zrotation Xrotation Yrotation
    JOINT Spine
    {
        OFFSET -0.000000 0.084000 0.000000
        CHANNELS 3 Zrotation Xrotation Yrotation
        JOINT Spine1
        {
            OFFSET -0.000000 0.216247 0.000000
            CHANNELS 3 Zrotation Xrotation Yrotation
            JOINT Neck
            {
                OFFSET -0.000000 0.215359 0.019578
                CHANNELS 3 Zrotation Xrotation Yrotation
                JOINT Head
                {
                    OFFSET -0.000000 0.143414 -0.020488
                    CHANNELS 3 Zrotation Xrotation Yrotation
                    End Site
                    {
                        OFFSET -0.000000 0.204877 0.000000
                    }
                }
            }
            JOINT LeftShoulder
            {
                OFFSET 0.040109 0.191272 -0.003631
                CHANNELS 3 Zrotation Xrotation Yrotation
                JOINT LeftArm
                {
                    OFFSET 0.138349 0.000000 0.000000
                    CHANNELS 3 Zrotation Xrotation Yrotation
                    JOINT LeftForeArm
                    {
                        OFFSET 0.335349 0.000000 0.000000
                        CHANNELS 3 Zrotation Xrotation Yrotation
                        JOINT LeftHand
                        {
                            OFFSET 0.276368 0.000000 0.000000
                            CHANNELS 3 Zrotation Xrotation Yrotation
                            End Site
                            {
                                OFFSET 0.153658 0.000000 0.000000
                            }
                        }
                    }
                }
            }
            JOINT RightShoulder
            {
                OFFSET -0.041533 0.191272 -0.003631
                CHANNELS 3 Zrotation Xrotation Yrotation
                JOINT RightArm
                {
                    OFFSET -0.138349 0.000000 0.000000
                    CHANNELS 3 Zrotation Xrotation Yrotation
                    JOINT RightForeArm
                    {
                        OFFSET -0.335349 0.000000 0.000000
                        CHANNELS 3 Zrotation Xrotation Yrotation
                        JOINT RightHand
                        {
                            OFFSET -0.276368 0.000000 0.000000
                            CHANNELS 3 Zrotation Xrotation Yrotation
                            End Site
                            {
                                OFFSET -0.153658 0.000000 0.000000
                            }
                        }
                    }
                }
            }
        }
    }
    JOINT LeftUpLeg
    {
        OFFSET 0.102438 0.000000 0.000000
        CHANNELS 3 Zrotation Xrotation Yrotation
        JOINT LeftLeg
        {
            OFFSET -0.000000 -0.442852 0.000000
            CHANNELS 3 Zrotation Xrotation Yrotation
            JOINT LeftFoot
            {
                OFFSET -0.000000 -0.461647 0.000000
                CHANNELS 3 Zrotation Xrotation Yrotation
                JOINT LeftToeBase
                {
                    OFFSET -0.000000 -0.066585 0.153658
                    CHANNELS 3 Zrotation Xrotation Yrotation
                    End Site
                    {
                        OFFSET -0.000000 0.000000 0.040975
                    }
                }
            }
        }
    }
    JOINT RightUpLeg
    {
        OFFSET -0.102438 0.000000 0.000000
        CHANNELS 3 Zrotation Xrotation Yrotation
        JOINT RightLeg
        {
            OFFSET -0.000000 -0.442852 0.000000
            CHANNELS 3 Zrotation Xrotation Yrotation
            JOINT RightFoot
            {
                OFFSET -0.000000 -0.461647 0.000000
                CHANNELS 3 Zrotation Xrotation Yrotation
                JOINT RightToeBase
                {
                    OFFSET -0.000000 -0.066585 0.153658
                    CHANNELS 3 Zrotation Xrotation Yrotation
                    End Site
                    {
                        OFFSET -0.000000 0.000000 0.040975
                    }
                }
            }
        }
    }
}
MOTION
Frames:    8
Frame Time:    0.010000
-0.531732    0.451529    0.183050    -0.727503    -4.468800    -0.851416    -1.262625    -2.892391    -4.015594    2.492707    0.920019    -1.349941    -6.108552    24.653761    2.657027    -0.110737    -7.625361    2.244587    12.576871    0.077237    1.454936    -5.457110    -6.152489    -3.847350    -3.651876    -4.334271    9.996891    6.506416    -3.745439    4.761597    -12.761825    -2.506504    14.661242    11.201577    -16.024300    -0.755693    -0.932560    3.143887    -5.034809    -49.505608    -2.323360    11.723881    156.636734    -68.476913    144.708755    -127.045692    68.484116    112.942566    3.998604    -8.221102    5.060178    0.000000    0.000000    0.000000    -169.966721    -69.899559    -168.910873    143.915161    76.214912    -151.688065    -16.263929    -2.644525    -5.396395    0.000000    0.000000    0.000000    
-0.531733    0.451528    0.183043    -0.729015    -4.473143    -0.857443    -1.262954    -2.880356    -4.011628    2.492788    0.912355    -1.348491    -6.109500    24.655739    2.656130    -0.107517    -7.626660    2.244139    12.579952    0.080448    1.452589    -5.458112    -6.181064    -3.837418    -3.661167    -4.316875    10.016208    6.496497    -3.726034    4.778807    -12.763206    -2.507634    14.661447    11.203289    -16.026964    -0.761925    -0.936446    3.133146    -5.031333    -49.508659    -2.330034    11.714020    156.621246    -68.478722    144.691544    -127.047432    68.483810    112.942307    3.996998    -8.224336    5.069406    0.000000    0.000000    0.000000    -169.988510    -69.906250    -168.925598    143.872528    76.212761    -151.652786    -16.264528    -2.645308    -5.402259    0.000000    0.000000    0.000000    
-0.531737    0.451528    0.183031    -0.731650    -4.474788    -0.863344    -1.262905    -2.870411    -4.007959    2.494994    0.903792    -1.347126    -6.113914    24.659128    2.656337    -0.102090    -7.629788    2.244929    12.580668    0.083067    1.450634    -5.457526    -6.211325    -3.827747    -3.671400    -4.298088    10.035356    6.488733    -3.705164    4.794484    -12.767666    -2.506984    14.661168    11.206826    -16.034357    -0.766504    -0.940006    3.123180    -5.028384    -49.515358    -2.337226    11.705975    156.609940    -68.478096    144.678329    -127.049461    68.484932    112.942986    3.996578    -8.226856    5.075689    0.000000    0.000000    0.000000    -170.010300    -69.911003    -168.941696    143.830185    76.211632    -151.617554    -16.265547    -2.645585    -5.405835    0.000000    0.000000    0.000000    
-0.531740    0.451530    0.183018    -0.733713    -4.476035    -0.869113    -1.262967    -2.860667    -4.004378    2.496909    0.895242    -1.345795    -6.120025    24.661037    2.657185    -0.094714    -7.631964    2.246731    12.580311    0.084715    1.449528    -5.455348    -6.242155    -3.818658    -3.681943    -4.279148    10.054231    6.482412    -3.684251    4.806663    -12.773499    -2.505256    14.660287    11.211460    -16.046118    -0.769345    -0.943309    3.114455    -5.026380    -49.522602    -2.344216    11.700092    156.598251    -68.477295    144.665558    -127.051201    68.486595    112.943680    3.998134    -8.227733    5.079176    0.000000    0.000000    0.000000    -170.031830    -69.915382    -168.958755    143.794571    76.211823    -151.589081    -16.267527    -2.645068    -5.406908    0.000000    0.000000    0.000000    
-0.531743    0.451533    0.183002    -0.735856    -4.476009    -0.874936    -1.262345    -2.851968    -4.000846    2.497609    0.886936    -1.344455    -6.125820    24.662024    2.657935    -0.086521    -7.634082    2.248724    12.580409    0.085111    1.448845    -5.452478    -6.271125    -3.809513    -3.691276    -4.262666    10.072222    6.477210    -3.666073    4.815464    -12.778246    -2.503826    14.659753    11.214781    -16.059963    -0.771888    -0.945849    3.108281    -5.025259    -49.527367    -2.348864    11.695267    156.586990    -68.475525    144.652771    -127.051208    68.488342    112.943581    4.001672    -8.227697    5.079528    0.000000    0.000000    0.000000    -170.053513    -69.918701    -168.979126    143.769974    76.214226    -151.571518    -16.270620    -2.643713    -5.405645    0.000000    0.000000    0.000000    
-0.531748    0.451538    0.182982    -0.738448    -4.474309    -0.880798    -1.261285    -2.844471    -3.997260    2.498145    0.878385    -1.343156    -6.131332    24.663437    2.658358    -0.077937    -7.637172    2.250385    12.580917    0.084403    1.447999    -5.449315    -6.295707    -3.799677    -3.699053    -4.249617    10.088394    6.472484    -3.651675    4.821434    -12.781886    -2.502961    14.659438    11.216110    -16.073700    -0.774150    -0.946657    3.105721    -5.025012    -49.530647    -2.349544    11.690309    156.577774    -68.472389    144.641083    -127.049782    68.490425    112.942520    4.004813    -8.227523    5.077753    0.000000    0.000000    0.000000    -170.074997    -69.920723    -169.002274    143.753387    76.218338    -151.561432    -16.274311    -2.641982    -5.403707    0.000000    0.000000    0.000000    
-0.531750    0.451543    0.182963    -0.740113    -4.473174    -0.886663    -1.260907    -2.836235    -3.993452    2.498238    0.869956    -1.341738    -6.137262    24.664129    2.658477    -0.068150    -7.639616    2.251986    12.581481    0.083211    1.446993    -5.445302    -6.315620    -3.789247    -3.706155    -4.239763    10.102250    6.468271    -3.640707    4.825062    -12.784785    -2.502553    14.659483    11.216539    -16.083055    -0.776386    -0.947225    3.104902    -5.025526    -49.533512    -2.347718    11.683814    156.567154    -68.469841    144.628677    -127.048225    68.492340    112.940933    4.007411    -8.227254    5.075663    0.000000    0.000000    0.000000    -170.095901    -69.922867    -169.025482    143.742096    76.222885    -151.556442    -16.276907    -2.640685    -5.401903    0.000000    0.000000    0.000000    
-0.531746    0.451548    0.182949    -0.738678    -4.476116    -0.892293    -1.262750    -2.824473    -3.989202    2.496784    0.862611    -1.340147    -6.141072    24.664076    2.657946    -0.059935    -7.641357    2.252812    12.582539    0.081286    1.445839    -5.440548    -6.331644    -3.778687    -3.713004    -4.231999    10.113836    6.463678    -3.632003    4.827707    -12.786372    -2.501861    14.660288    11.216330    -16.085556    -0.778716    -0.949452    3.102838    -5.027565    -49.536163    -2.345999    11.674786    156.549637    -68.471413    144.611237    -127.046211    68.492516    112.939507    4.010240    -8.226976    5.073193    0.000000    0.000000    0.000000    -170.115112    -69.927521    -169.043869    143.736694    76.226128    -151.556061    -16.278303    -2.639842    -5.398717    0.000000    0.000000    0.000000    
